{
	"patcher" : 	{
		"fileversion" : 1,
		"rect" : [ 42.0, 131.0, 640.0, 480.0 ],
		"bglocked" : 0,
		"defrect" : [ 42.0, 131.0, 640.0, 480.0 ],
		"openrect" : [ 0.0, 0.0, 0.0, 0.0 ],
		"openinpresentation" : 1,
		"default_fontsize" : 10.0,
		"default_fontface" : 0,
		"default_fontname" : "Arial",
		"gridonopen" : 0,
		"gridsize" : [ 8.0, 8.0 ],
		"gridsnaponopen" : 0,
		"toolbarvisible" : 1,
		"boxanimatetime" : 200,
		"imprint" : 0,
		"enablehscroll" : 1,
		"enablevscroll" : 1,
		"devicewidth" : 0.0,
		"boxes" : [ 			{
				"box" : 				{
					"maxclass" : "newobj",
					"text" : "!- 50",
					"numinlets" : 2,
					"numoutlets" : 1,
					"fontsize" : 10.0,
					"outlettype" : [ "int" ],
					"patching_rect" : [ 270.5, 381.5, 32.5, 18.0 ],
					"id" : "obj-42",
					"fontname" : "Arial"
				}

			}
, 			{
				"box" : 				{
					"maxclass" : "comment",
					"text" : "% > f1",
					"numinlets" : 1,
					"numoutlets" : 0,
					"fontsize" : 10.0,
					"presentation_rect" : [ 528.0, 0.0, 38.0, 18.0 ],
					"patching_rect" : [ 322.5, 305.5, 39.5, 18.0 ],
					"presentation" : 1,
					"id" : "obj-36",
					"fontname" : "Arial"
				}

			}
, 			{
				"box" : 				{
					"maxclass" : "number",
					"hbgcolor" : [ 0.0, 0.0, 0.0, 0.501961 ],
					"numinlets" : 1,
					"htextcolor" : [ 0.0, 0.0, 0.0, 1.0 ],
					"numoutlets" : 2,
					"fontsize" : 10.0,
					"minimum" : 0,
					"outlettype" : [ "int", "bang" ],
					"presentation_rect" : [ 496.0, 0.0, 32.0, 18.0 ],
					"maximum" : 100,
					"patching_rect" : [ 271.0, 307.0, 50.0, 18.0 ],
					"presentation" : 1,
					"id" : "obj-37",
					"fontname" : "Arial"
				}

			}
, 			{
				"box" : 				{
					"maxclass" : "newobj",
					"text" : "zl ecils 1",
					"numinlets" : 2,
					"numoutlets" : 2,
					"fontsize" : 10.0,
					"outlettype" : [ "", "" ],
					"patching_rect" : [ 270.5, 353.5, 49.0, 18.0 ],
					"id" : "obj-38",
					"fontname" : "Arial"
				}

			}
, 			{
				"box" : 				{
					"maxclass" : "newobj",
					"text" : "thresh 50",
					"numinlets" : 2,
					"numoutlets" : 1,
					"fontsize" : 10.0,
					"outlettype" : [ "" ],
					"patching_rect" : [ 270.5, 330.5, 52.0, 18.0 ],
					"id" : "obj-39",
					"fontname" : "Arial"
				}

			}
, 			{
				"box" : 				{
					"maxclass" : "newobj",
					"text" : "prepend set",
					"numinlets" : 1,
					"numoutlets" : 1,
					"fontsize" : 10.0,
					"outlettype" : [ "" ],
					"patching_rect" : [ 270.5, 282.5, 63.0, 18.0 ],
					"id" : "obj-40",
					"fontname" : "Arial"
				}

			}
, 			{
				"box" : 				{
					"maxclass" : "newobj",
					"text" : "!- 50",
					"numinlets" : 2,
					"numoutlets" : 1,
					"fontsize" : 10.0,
					"outlettype" : [ "int" ],
					"patching_rect" : [ 270.5, 258.5, 32.5, 18.0 ],
					"id" : "obj-41",
					"fontname" : "Arial"
				}

			}
, 			{
				"box" : 				{
					"maxclass" : "comment",
					"text" : "% > f2",
					"numinlets" : 1,
					"numoutlets" : 0,
					"fontsize" : 10.0,
					"presentation_rect" : [ 600.0, 0.0, 38.0, 18.0 ],
					"patching_rect" : [ 418.5, 306.5, 39.5, 18.0 ],
					"presentation" : 1,
					"id" : "obj-20",
					"fontname" : "Arial"
				}

			}
, 			{
				"box" : 				{
					"maxclass" : "number",
					"hbgcolor" : [ 0.0, 0.0, 0.0, 0.501961 ],
					"numinlets" : 1,
					"htextcolor" : [ 0.0, 0.0, 0.0, 1.0 ],
					"numoutlets" : 2,
					"fontsize" : 10.0,
					"minimum" : 0,
					"outlettype" : [ "int", "bang" ],
					"presentation_rect" : [ 568.0, 0.0, 32.0, 18.0 ],
					"maximum" : 100,
					"patching_rect" : [ 367.0, 308.0, 50.0, 18.0 ],
					"presentation" : 1,
					"id" : "obj-27",
					"fontname" : "Arial"
				}

			}
, 			{
				"box" : 				{
					"maxclass" : "newobj",
					"text" : "zl ecils 1",
					"numinlets" : 2,
					"numoutlets" : 2,
					"fontsize" : 10.0,
					"outlettype" : [ "", "" ],
					"patching_rect" : [ 366.5, 354.5, 49.0, 18.0 ],
					"id" : "obj-28",
					"fontname" : "Arial"
				}

			}
, 			{
				"box" : 				{
					"maxclass" : "newobj",
					"text" : "thresh 50",
					"numinlets" : 2,
					"numoutlets" : 1,
					"fontsize" : 10.0,
					"outlettype" : [ "" ],
					"patching_rect" : [ 366.5, 331.5, 52.0, 18.0 ],
					"id" : "obj-29",
					"fontname" : "Arial"
				}

			}
, 			{
				"box" : 				{
					"maxclass" : "newobj",
					"text" : "- 50",
					"numinlets" : 2,
					"numoutlets" : 1,
					"fontsize" : 10.0,
					"outlettype" : [ "int" ],
					"patching_rect" : [ 366.5, 378.5, 32.5, 18.0 ],
					"id" : "obj-30",
					"fontname" : "Arial"
				}

			}
, 			{
				"box" : 				{
					"maxclass" : "newobj",
					"text" : "prepend set",
					"numinlets" : 1,
					"numoutlets" : 1,
					"fontsize" : 10.0,
					"outlettype" : [ "" ],
					"patching_rect" : [ 366.5, 283.5, 63.0, 18.0 ],
					"id" : "obj-31",
					"fontname" : "Arial"
				}

			}
, 			{
				"box" : 				{
					"maxclass" : "newobj",
					"text" : "+ 50",
					"numinlets" : 2,
					"numoutlets" : 1,
					"fontsize" : 10.0,
					"outlettype" : [ "int" ],
					"patching_rect" : [ 366.5, 259.5, 32.5, 18.0 ],
					"id" : "obj-32",
					"fontname" : "Arial"
				}

			}
, 			{
				"box" : 				{
					"maxclass" : "comment",
					"text" : "Balance",
					"numinlets" : 1,
					"numoutlets" : 0,
					"fontsize" : 10.0,
					"patching_rect" : [ 330.0, 231.0, 74.0, 18.0 ],
					"id" : "obj-33",
					"fontname" : "Arial"
				}

			}
, 			{
				"box" : 				{
					"maxclass" : "number",
					"varname" : "Balance",
					"hbgcolor" : [ 0.0, 0.0, 0.0, 0.501961 ],
					"numinlets" : 1,
					"htextcolor" : [ 0.0, 0.0, 0.0, 1.0 ],
					"numoutlets" : 2,
					"fontsize" : 10.0,
					"minimum" : -50,
					"outlettype" : [ "int", "bang" ],
					"maximum" : 50,
					"patching_rect" : [ 271.0, 231.0, 50.0, 18.0 ],
					"id" : "obj-35",
					"fontname" : "Arial"
				}

			}
, 			{
				"box" : 				{
					"maxclass" : "comment",
					"text" : "%",
					"numinlets" : 1,
					"numoutlets" : 0,
					"fontsize" : 10.0,
					"presentation_rect" : [ 472.0, 0.0, 17.0, 18.0 ],
					"patching_rect" : [ 127.0, 338.0, 19.0, 18.0 ],
					"presentation" : 1,
					"id" : "obj-3",
					"fontname" : "Arial"
				}

			}
, 			{
				"box" : 				{
					"maxclass" : "number",
					"varname" : "Level",
					"hbgcolor" : [ 0.0, 0.0, 0.0, 0.501961 ],
					"numinlets" : 1,
					"htextcolor" : [ 0.0, 0.0, 0.0, 1.0 ],
					"numoutlets" : 2,
					"fontsize" : 10.0,
					"minimum" : 0,
					"outlettype" : [ "int", "bang" ],
					"presentation_rect" : [ 440.0, 0.0, 48.0, 18.0 ],
					"maximum" : 100,
					"patching_rect" : [ 71.0, 336.0, 50.0, 18.0 ],
					"presentation" : 1,
					"id" : "obj-5",
					"fontname" : "Arial"
				}

			}
, 			{
				"box" : 				{
					"maxclass" : "comment",
					"text" : "Level",
					"numinlets" : 1,
					"numoutlets" : 0,
					"fontsize" : 10.0,
					"patching_rect" : [ 7.0, 336.0, 61.0, 18.0 ],
					"id" : "obj-14",
					"fontname" : "Arial"
				}

			}
, 			{
				"box" : 				{
					"maxclass" : "newobj",
					"text" : "* 10.",
					"numinlets" : 2,
					"numoutlets" : 1,
					"fontsize" : 10.0,
					"outlettype" : [ "float" ],
					"patching_rect" : [ 94.0, 283.0, 32.5, 18.0 ],
					"id" : "obj-18",
					"fontname" : "Arial"
				}

			}
, 			{
				"box" : 				{
					"maxclass" : "newobj",
					"text" : "zl ecils 1",
					"numinlets" : 2,
					"numoutlets" : 2,
					"fontsize" : 10.0,
					"outlettype" : [ "", "" ],
					"patching_rect" : [ 64.0, 258.0, 49.0, 18.0 ],
					"id" : "obj-15",
					"fontname" : "Arial"
				}

			}
, 			{
				"box" : 				{
					"maxclass" : "newobj",
					"text" : "thresh 50",
					"numinlets" : 2,
					"numoutlets" : 1,
					"fontsize" : 10.0,
					"outlettype" : [ "" ],
					"patching_rect" : [ 64.0, 235.0, 52.0, 18.0 ],
					"id" : "obj-16",
					"fontname" : "Arial"
				}

			}
, 			{
				"box" : 				{
					"maxclass" : "comment",
					"text" : "semitones",
					"numinlets" : 1,
					"numoutlets" : 0,
					"fontsize" : 10.0,
					"presentation_rect" : [ 376.0, 0.0, 56.0, 18.0 ],
					"patching_rect" : [ 240.0, 136.0, 64.0, 18.0 ],
					"presentation" : 1,
					"id" : "obj-23",
					"fontname" : "Arial"
				}

			}
, 			{
				"box" : 				{
					"maxclass" : "comment",
					"text" : "semitones",
					"numinlets" : 1,
					"numoutlets" : 0,
					"fontsize" : 10.0,
					"presentation_rect" : [ 208.0, 0.0, 64.0, 18.0 ],
					"patching_rect" : [ 112.0, 96.0, 64.0, 18.0 ],
					"presentation" : 1,
					"id" : "obj-24",
					"fontname" : "Arial"
				}

			}
, 			{
				"box" : 				{
					"maxclass" : "comment",
					"text" : "cents",
					"numinlets" : 1,
					"numoutlets" : 0,
					"fontsize" : 10.0,
					"presentation_rect" : [ 312.0, 0.0, 32.0, 18.0 ],
					"patching_rect" : [ 118.0, 212.0, 32.0, 18.0 ],
					"presentation" : 1,
					"id" : "obj-25",
					"fontname" : "Arial"
				}

			}
, 			{
				"box" : 				{
					"maxclass" : "comment",
					"text" : "%",
					"numinlets" : 1,
					"numoutlets" : 0,
					"fontsize" : 10.0,
					"presentation_rect" : [ 104.0, 0.0, 17.0, 18.0 ],
					"patching_rect" : [ 112.0, 32.0, 17.0, 18.0 ],
					"presentation" : 1,
					"id" : "obj-26",
					"fontname" : "Arial"
				}

			}
, 			{
				"box" : 				{
					"maxclass" : "number",
					"varname" : "PWhlRange",
					"hbgcolor" : [ 0.0, 0.0, 0.0, 0.501961 ],
					"numinlets" : 1,
					"htextcolor" : [ 0.0, 0.0, 0.0, 1.0 ],
					"numoutlets" : 2,
					"fontsize" : 10.0,
					"minimum" : 0,
					"outlettype" : [ "int", "bang" ],
					"presentation_rect" : [ 352.0, 0.0, 80.0, 18.0 ],
					"maximum" : 12,
					"patching_rect" : [ 192.0, 136.0, 48.0, 18.0 ],
					"presentation" : 1,
					"id" : "obj-21",
					"fontname" : "Arial"
				}

			}
, 			{
				"box" : 				{
					"maxclass" : "comment",
					"text" : "PWhlRange",
					"numinlets" : 1,
					"numoutlets" : 0,
					"fontsize" : 10.0,
					"patching_rect" : [ 192.0, 120.0, 66.0, 18.0 ],
					"id" : "obj-22",
					"fontname" : "Arial"
				}

			}
, 			{
				"box" : 				{
					"maxclass" : "newobj",
					"text" : "/ 10.",
					"numinlets" : 2,
					"numoutlets" : 1,
					"fontsize" : 10.0,
					"outlettype" : [ "float" ],
					"patching_rect" : [ 64.0, 160.0, 32.5, 18.0 ],
					"id" : "obj-19",
					"fontname" : "Arial"
				}

			}
, 			{
				"box" : 				{
					"maxclass" : "newobj",
					"text" : "prepend set",
					"numinlets" : 1,
					"numoutlets" : 1,
					"fontsize" : 10.0,
					"outlettype" : [ "" ],
					"patching_rect" : [ 64.0, 182.0, 63.0, 18.0 ],
					"id" : "obj-17",
					"fontname" : "Arial"
				}

			}
, 			{
				"box" : 				{
					"maxclass" : "number",
					"varname" : "Pitch",
					"hbgcolor" : [ 0.0, 0.0, 0.0, 0.501961 ],
					"numinlets" : 1,
					"htextcolor" : [ 0.0, 0.0, 0.0, 1.0 ],
					"numoutlets" : 2,
					"fontsize" : 10.0,
					"minimum" : -999,
					"outlettype" : [ "int", "bang" ],
					"maximum" : 999,
					"patching_rect" : [ 64.0, 136.0, 48.0, 18.0 ],
					"id" : "obj-8",
					"fontname" : "Arial"
				}

			}
, 			{
				"box" : 				{
					"maxclass" : "comment",
					"text" : "Pitch",
					"numinlets" : 1,
					"numoutlets" : 0,
					"fontsize" : 10.0,
					"patching_rect" : [ 116.0, 137.0, 61.0, 18.0 ],
					"id" : "obj-13",
					"fontname" : "Arial"
				}

			}
, 			{
				"box" : 				{
					"maxclass" : "number",
					"varname" : "Transpose",
					"hbgcolor" : [ 0.0, 0.0, 0.0, 0.501961 ],
					"numinlets" : 1,
					"htextcolor" : [ 0.0, 0.0, 0.0, 1.0 ],
					"numoutlets" : 2,
					"fontsize" : 10.0,
					"minimum" : -7,
					"outlettype" : [ "int", "bang" ],
					"presentation_rect" : [ 184.0, 0.0, 80.0, 18.0 ],
					"maximum" : 7,
					"patching_rect" : [ 64.0, 96.0, 48.0, 18.0 ],
					"presentation" : 1,
					"id" : "obj-1",
					"fontname" : "Arial"
				}

			}
, 			{
				"box" : 				{
					"maxclass" : "comment",
					"text" : "Transpose",
					"numinlets" : 1,
					"numoutlets" : 0,
					"fontsize" : 10.0,
					"patching_rect" : [ 0.0, 96.0, 61.0, 18.0 ],
					"id" : "obj-2",
					"fontname" : "Arial"
				}

			}
, 			{
				"box" : 				{
					"maxclass" : "number",
					"varname" : "Octave",
					"hbgcolor" : [ 0.0, 0.0, 0.0, 0.501961 ],
					"numinlets" : 1,
					"htextcolor" : [ 0.0, 0.0, 0.0, 1.0 ],
					"numoutlets" : 2,
					"fontsize" : 10.0,
					"minimum" : -3,
					"outlettype" : [ "int", "bang" ],
					"presentation_rect" : [ 128.0, 0.0, 48.0, 18.0 ],
					"maximum" : 3,
					"patching_rect" : [ 64.0, 64.0, 48.0, 18.0 ],
					"presentation" : 1,
					"id" : "obj-11",
					"fontname" : "Arial"
				}

			}
, 			{
				"box" : 				{
					"maxclass" : "comment",
					"text" : "Octave",
					"numinlets" : 1,
					"numoutlets" : 0,
					"fontsize" : 10.0,
					"patching_rect" : [ 0.0, 64.0, 61.0, 18.0 ],
					"id" : "obj-12",
					"fontname" : "Arial"
				}

			}
, 			{
				"box" : 				{
					"maxclass" : "newobj",
					"varname" : "u874001895",
					"text" : "autopattr",
					"numinlets" : 1,
					"numoutlets" : 4,
					"fontsize" : 10.0,
					"outlettype" : [ "", "", "", "" ],
					"patching_rect" : [ 158.0, 38.0, 59.5, 18.0 ],
					"id" : "obj-10",
					"fontname" : "Arial",
					"restore" : 					{
						"Balance" : [ 50 ],
						"Level" : [ 100 ],
						"Octave" : [ 0 ],
						"PWhlRange" : [ 12 ],
						"Pitch" : [ 0 ],
						"Transpose" : [ 0 ],
						"Waveform" : [ 0 ],
						"Waveshape" : [ 100 ]
					}

				}

			}
, 			{
				"box" : 				{
					"maxclass" : "number",
					"varname" : "Waveshape",
					"hbgcolor" : [ 0.0, 0.0, 0.0, 0.501961 ],
					"numinlets" : 1,
					"htextcolor" : [ 0.0, 0.0, 0.0, 1.0 ],
					"numoutlets" : 2,
					"fontsize" : 10.0,
					"minimum" : -100,
					"outlettype" : [ "int", "bang" ],
					"presentation_rect" : [ 72.0, 0.0, 48.0, 18.0 ],
					"maximum" : 100,
					"patching_rect" : [ 64.0, 32.0, 48.0, 18.0 ],
					"presentation" : 1,
					"id" : "obj-9",
					"fontname" : "Arial"
				}

			}
, 			{
				"box" : 				{
					"maxclass" : "comment",
					"text" : "Waveshape",
					"numinlets" : 1,
					"numoutlets" : 0,
					"fontsize" : 10.0,
					"patching_rect" : [ 0.0, 32.0, 61.0, 18.0 ],
					"id" : "obj-7",
					"fontname" : "Arial"
				}

			}
, 			{
				"box" : 				{
					"maxclass" : "comment",
					"text" : "Waveform",
					"numinlets" : 1,
					"numoutlets" : 0,
					"fontsize" : 10.0,
					"patching_rect" : [ 0.0, 0.0, 61.0, 18.0 ],
					"id" : "obj-6",
					"fontname" : "Arial"
				}

			}
, 			{
				"box" : 				{
					"maxclass" : "umenu",
					"varname" : "Waveform",
					"numinlets" : 1,
					"numoutlets" : 3,
					"fontsize" : 10.0,
					"outlettype" : [ "int", "", "" ],
					"presentation_rect" : [ 0.0, 0.0, 64.0, 18.0 ],
					"items" : [ "sine", ",", "tri/saw", ",", "pulse" ],
					"types" : [  ],
					"patching_rect" : [ 64.0, 0.0, 64.0, 18.0 ],
					"presentation" : 1,
					"id" : "obj-4",
					"fontname" : "Arial"
				}

			}
, 			{
				"box" : 				{
					"maxclass" : "flonum",
					"hbgcolor" : [ 0.0, 0.0, 0.0, 0.501961 ],
					"numinlets" : 1,
					"htextcolor" : [ 0.0, 0.0, 0.0, 1.0 ],
					"numdecimalplaces" : 2,
					"numoutlets" : 2,
					"fontsize" : 10.0,
					"minimum" : -99.900002,
					"outlettype" : [ "float", "bang" ],
					"presentation_rect" : [ 272.0, 0.0, 72.0, 18.0 ],
					"maximum" : 99.900002,
					"patching_rect" : [ 64.0, 211.0, 50.0, 18.0 ],
					"presentation" : 1,
					"id" : "obj-66",
					"fontname" : "Arial"
				}

			}
 ],
		"lines" : [ 			{
				"patchline" : 				{
					"source" : [ "obj-42", 0 ],
					"destination" : [ "obj-35", 0 ],
					"hidden" : 0,
					"midpoints" : [ 280.0, 406.0, 257.0, 406.0, 257.0, 225.0, 280.5, 225.0 ]
				}

			}
, 			{
				"patchline" : 				{
					"source" : [ "obj-38", 1 ],
					"destination" : [ "obj-42", 0 ],
					"hidden" : 0,
					"midpoints" : [  ]
				}

			}
, 			{
				"patchline" : 				{
					"source" : [ "obj-35", 0 ],
					"destination" : [ "obj-41", 0 ],
					"hidden" : 0,
					"midpoints" : [  ]
				}

			}
, 			{
				"patchline" : 				{
					"source" : [ "obj-41", 0 ],
					"destination" : [ "obj-40", 0 ],
					"hidden" : 0,
					"midpoints" : [  ]
				}

			}
, 			{
				"patchline" : 				{
					"source" : [ "obj-37", 0 ],
					"destination" : [ "obj-39", 0 ],
					"hidden" : 0,
					"midpoints" : [  ]
				}

			}
, 			{
				"patchline" : 				{
					"source" : [ "obj-40", 0 ],
					"destination" : [ "obj-37", 0 ],
					"hidden" : 0,
					"midpoints" : [  ]
				}

			}
, 			{
				"patchline" : 				{
					"source" : [ "obj-39", 0 ],
					"destination" : [ "obj-38", 0 ],
					"hidden" : 0,
					"midpoints" : [  ]
				}

			}
, 			{
				"patchline" : 				{
					"source" : [ "obj-30", 0 ],
					"destination" : [ "obj-35", 0 ],
					"hidden" : 0,
					"midpoints" : [ 376.0, 414.0, 253.0, 414.0, 253.0, 218.0, 280.5, 218.0 ]
				}

			}
, 			{
				"patchline" : 				{
					"source" : [ "obj-35", 0 ],
					"destination" : [ "obj-32", 0 ],
					"hidden" : 0,
					"midpoints" : [  ]
				}

			}
, 			{
				"patchline" : 				{
					"source" : [ "obj-29", 0 ],
					"destination" : [ "obj-28", 0 ],
					"hidden" : 0,
					"midpoints" : [  ]
				}

			}
, 			{
				"patchline" : 				{
					"source" : [ "obj-31", 0 ],
					"destination" : [ "obj-27", 0 ],
					"hidden" : 0,
					"midpoints" : [  ]
				}

			}
, 			{
				"patchline" : 				{
					"source" : [ "obj-27", 0 ],
					"destination" : [ "obj-29", 0 ],
					"hidden" : 0,
					"midpoints" : [  ]
				}

			}
, 			{
				"patchline" : 				{
					"source" : [ "obj-32", 0 ],
					"destination" : [ "obj-31", 0 ],
					"hidden" : 0,
					"midpoints" : [  ]
				}

			}
, 			{
				"patchline" : 				{
					"source" : [ "obj-28", 1 ],
					"destination" : [ "obj-30", 0 ],
					"hidden" : 0,
					"midpoints" : [  ]
				}

			}
, 			{
				"patchline" : 				{
					"source" : [ "obj-15", 1 ],
					"destination" : [ "obj-18", 0 ],
					"hidden" : 0,
					"midpoints" : [  ]
				}

			}
, 			{
				"patchline" : 				{
					"source" : [ "obj-18", 0 ],
					"destination" : [ "obj-8", 0 ],
					"hidden" : 0,
					"midpoints" : [ 103.5, 312.0, 55.0, 312.0, 55.0, 129.0, 73.5, 129.0 ]
				}

			}
, 			{
				"patchline" : 				{
					"source" : [ "obj-66", 0 ],
					"destination" : [ "obj-16", 0 ],
					"hidden" : 0,
					"midpoints" : [  ]
				}

			}
, 			{
				"patchline" : 				{
					"source" : [ "obj-16", 0 ],
					"destination" : [ "obj-15", 0 ],
					"hidden" : 0,
					"midpoints" : [  ]
				}

			}
, 			{
				"patchline" : 				{
					"source" : [ "obj-17", 0 ],
					"destination" : [ "obj-66", 0 ],
					"hidden" : 0,
					"midpoints" : [  ]
				}

			}
, 			{
				"patchline" : 				{
					"source" : [ "obj-8", 0 ],
					"destination" : [ "obj-19", 0 ],
					"hidden" : 0,
					"midpoints" : [  ]
				}

			}
, 			{
				"patchline" : 				{
					"source" : [ "obj-19", 0 ],
					"destination" : [ "obj-17", 0 ],
					"hidden" : 0,
					"midpoints" : [  ]
				}

			}
 ]
	}

}
